# xmcd
#
# Track frame offsets:
#	150
#	16467
#	53153
#	74710
#	98113
#	119764
#	143055
#	164654
#	200287
#	218086
#	240085
#	264877
#	287085
#
# Disc length: 4209
#
# Revision: 0
# Processed by: cddbd v1.5.1PL2 Copyright (c) Steve Scherf et al.
# Submitted via: Broken Cross Disk Manager 3.62.2080
#
DISCID=bf106f0d
DTITLE=Eric Clapton - Classic Ballads
DYEAR=1900
DGENRE=
TTITLE0=Wonderful Tonight
TTITLE1=Double Trouble - Live
TTITLE2=Tears In Heaven - Lonely Stranger
TTITLE3=Black Summer
TTITLE4=Third Degree
TTITLE5=Five Long Years
TTITLE6=Early In The Morning
TTITLE7=The Sky Is Crying
TTITLE8=Holy Mother
TTITLE9=Pretty Girl
TTITLE10=Let It Grow
TTITLE11=Old Love
TTITLE12=Running On Faith
EXTD=
EXTT0=
EXTT1=
EXTT2=
EXTT3=
EXTT4=
EXTT5=
EXTT6=
EXTT7=
EXTT8=
EXTT9=
EXTT10=
EXTT11=
EXTT12=
PLAYORDER=
